<svg width="51" height="51" viewBox="0 0 51 51" fill="none" xmlns="http://www.w3.org/2000/svg">
<path d="M30.8602 24.0619C30.8602 28.6165 25.0043 32.5204 25.0043 32.5204C25.0043 32.5204 19.1484 28.6165 19.1484 24.0619C19.1484 22.5088 19.7654 21.0194 20.8636 19.9212C21.9618 18.823 23.4512 18.2061 25.0043 18.2061C26.5574 18.2061 28.0468 18.823 29.145 19.9212C30.2432 21.0194 30.8602 22.5088 30.8602 24.0619Z" stroke="#01272F" stroke-width="1.46293" stroke-linecap="round" stroke-linejoin="round"/>
<path d="M25.0037 26.015C26.0817 26.015 26.9557 25.1411 26.9557 24.063C26.9557 22.985 26.0817 22.1111 25.0037 22.1111C23.9257 22.1111 23.0518 22.985 23.0518 24.063C23.0518 25.1411 23.9257 26.015 25.0037 26.015Z" stroke="#01272F" stroke-width="1.46293" stroke-linecap="round" stroke-linejoin="round"/>
</svg>
