<svg width="51" height="51" viewBox="0 0 51 51" fill="none" xmlns="http://www.w3.org/2000/svg">
<path fill-rule="evenodd" clip-rule="evenodd" d="M29.7062 24.7532C29.7062 21.9918 27.4676 19.7532 24.7062 19.7532C21.9448 19.7532 19.7062 21.9918 19.7062 24.7532C19.7062 27.5146 21.9448 29.7532 24.7062 29.7532C27.4676 29.7532 29.7062 27.5146 29.7062 24.7532ZM24.7062 18.2532C28.2961 18.2532 31.2062 21.1633 31.2062 24.7532C31.2062 26.1652 30.756 27.4721 29.9912 28.538L33.4991 32.0459C33.8896 32.4365 33.8896 33.0696 33.4991 33.4602C33.1086 33.8507 32.4754 33.8507 32.0849 33.4602L28.5903 29.9656C27.5067 30.7744 26.1624 31.2532 24.7062 31.2532C21.1164 31.2532 18.2062 28.343 18.2062 24.7532C18.2062 21.1633 21.1164 18.2532 24.7062 18.2532Z" fill="#01272F"/>
</svg>
