<svg width="51" height="51" viewBox="0 0 51 51" fill="none" xmlns="http://www.w3.org/2000/svg">
<rect x="0.441406" y="0.363281" width="50" height="50" rx="15" fill="#01272F"/>
<path fill-rule="evenodd" clip-rule="evenodd" d="M28.6486 24.1133C28.6486 21.628 26.6339 19.6133 24.1486 19.6133C21.6633 19.6133 19.6486 21.628 19.6486 24.1133C19.6486 26.5986 21.6633 28.6133 24.1486 28.6133C26.6339 28.6133 28.6486 26.5986 28.6486 24.1133ZM24.1486 17.6133C27.7384 17.6133 30.6486 20.5234 30.6486 24.1133C30.6486 25.5253 30.1983 26.8322 29.4336 27.8982L32.9415 31.4061C33.332 31.7966 33.332 32.4297 32.9415 32.8203C32.551 33.2108 31.9178 33.2108 31.5273 32.8203L28.0327 29.3257C26.9491 30.1345 25.6047 30.6133 24.1486 30.6133C20.5587 30.6133 17.6486 27.7031 17.6486 24.1133C17.6486 20.5234 20.5587 17.6133 24.1486 17.6133Z" fill="white"/>
</svg>
